<?xml version="1.0" encoding="UTF-8"?><svg xmlns="http://www.w3.org/2000/svg" viewBox="0 0 603.06 140.9"><defs><style>.d,.e{fill:#fff;}.e,.f{fill-rule:evenodd;}.g,.f{fill:#74c044;}.h{fill:#75c043;}</style></defs><g id="a"/><g id="b"><g id="c"><g><path class="d" d="M0,0V140.9H138.75V0H0Z"/><rect class="d" x="383.8" y="0" width="1.45" height="140.88" transform="translate(769.06 140.88) rotate(180)"/><g><g><path class="f" d="M535.82,114.09c0-3.25-3.74-5.32-10.54-5.32-7.19,0-10.93,1.97-10.93,5.22,0,2.4,1.47,4.03,4.4,4.89h12.45c3.03-.87,4.61-2.5,4.61-4.8Z"/><path class="f" d="M587.05,21.99h-118.17c-8.84,0-16.01,7.25-16.01,16.2V102.69c0,8.95,7.17,16.2,16.01,16.2h33.1c-.54-1.27-.82-2.64-.82-4.11,0-5.32,4.13-9.26,12.11-11.32-3.54-1.08-5.32-2.95-5.32-5.61,0-3.54,2.56-5.81,7.68-6.99-8.07-2.36-11.52-6.23-12.12-13.69-.09-1.17-.11-3.97,.89-6.73,4.03-11.1,24.8-16.93,24.8-16.93l-1.46-2.67,10.01,3.04-1.67,9.09-2.08-2.29c-9.88,3.29-14.89,8.3-16.39,12.22-1.44,3.77-.58,11.55,6.8,11.68,7.38,.13,10.3-5.8,8.09-10.76-2.21-4.96-8.88-4.67-8.88-4.67l9.42-6.46c3.18,.95,5.65,2.35,7.45,3.65,3.58,2.6,5.84,6.71,5.86,11.14v.09c0,8.27-4.92,13.1-14.57,14.77-6.3,1.08-10.24,.1-10.24,3.64,0,3.05,3.94,2.66,12.5,3.74,9.85,1.28,14.97,6.01,14.97,13.39,0,2.15-.41,4.07-1.19,5.78h39.23c8.84,0,16.01-7.26,16.01-16.2V38.19c0-8.95-7.17-16.2-16.01-16.2Z"/></g><path class="d" d="M534.05,99.72c-8.57-1.08-12.5-.69-12.5-3.74,0-3.54,3.94-2.56,10.24-3.64,9.65-1.67,14.57-6.5,14.57-14.77v-.09c-.02-4.43-2.28-8.54-5.86-11.14-1.8-1.3-4.27-2.7-7.45-3.65l-9.42,6.46s6.67-.29,8.88,4.67c2.21,4.96-.71,10.88-8.09,10.76-7.38-.13-8.24-7.91-6.8-11.68,1.5-3.92,6.51-8.92,16.39-12.22l2.08,2.29,1.67-9.09-10.01-3.04,1.46,2.67s-20.76,5.83-24.8,16.93c-1,2.75-.98,5.56-.89,6.73,.6,7.46,4.04,11.33,12.12,13.69-5.12,1.18-7.68,3.45-7.68,6.99,0,2.66,1.77,4.53,5.32,5.62-7.98,2.07-12.11,6.01-12.11,11.32,0,1.47,.28,2.84,.82,4.11h16.78c-2.93-.86-4.4-2.49-4.4-4.89,0-3.25,3.74-5.22,10.93-5.22,6.79,0,10.54,2.07,10.54,5.32,0,2.3-1.58,3.93-4.61,4.8h16.61c.78-1.7,1.2-3.62,1.2-5.78,0-7.39-5.12-12.11-14.97-13.39Z"/><path class="e" d="M548.21,52.36c1.02,0,2.02,.26,2.99,.79,.97,.53,1.73,1.27,2.27,2.25,.54,.98,.81,1.99,.81,3.05s-.27,2.06-.8,3.02c-.53,.97-1.28,1.72-2.25,2.25-.96,.53-1.97,.8-3.02,.8s-2.06-.27-3.02-.8c-.97-.53-1.72-1.29-2.25-2.25-.54-.97-.81-1.98-.81-3.02s.27-2.07,.82-3.05c.54-.97,1.3-1.72,2.28-2.25,.97-.52,1.97-.79,2.99-.79m4.39,3.54c-.45-.81-1.09-1.44-1.9-1.88-.81-.44-1.64-.66-2.49-.66s-1.69,.22-2.49,.66c-.81,.44-1.44,1.06-1.9,1.88-.46,.81-.69,1.66-.69,2.54s.23,1.72,.67,2.52c.45,.8,1.07,1.43,1.88,1.88,.81,.45,1.65,.67,2.52,.67s1.72-.22,2.52-.67c.81-.45,1.44-1.08,1.88-1.88,.45-.8,.67-1.64,.67-2.52s-.23-1.73-.68-2.54m-2.42,4.12c.22,.95,.38,1.61,.52,1.87h-.91c-.11-.19-.26-.78-.45-1.62-.2-.94-.57-1.29-1.37-1.32h-.83v2.95h-.88v-6.7c.44-.09,1.09-.15,1.69-.15,.94,0,1.55,.18,1.98,.57,.33,.29,.53,.76,.53,1.29,0,.89-.57,1.48-1.28,1.73v.03c.52,.18,.83,.67,1,1.37m-.6-3.04c0-.88-.63-1.26-1.56-1.26-.43,0-.72,.04-.87,.08v2.47h.9c.94,0,1.53-.51,1.53-1.29"/><path class="d" d="M457.37,60.24h14.28v5.71c4.63-4.72,9.35-6.6,15.56-6.6,9.85,0,15.46,6.11,15.46,17.62v28.85h-14.38v-26.88c0-6.3-1.87-9.35-6.4-9.35s-7.78,2.95-10.24,7.19v29.05h-14.28V60.24Z"/><g><path class="g" d="M439.62,41.51c4.8,0,8.51,3.71,8.51,8.51s-3.71,8.51-8.51,8.51-8.51-3.82-8.51-8.51,3.71-8.51,8.51-8.51"/><rect class="g" x="431.11" y="60.08" width="16.74" height="46.11"/></g></g><path class="d" d="M176.15,101.65c-.36-.58-.81-1.09-1.35-1.52-.54-.44-1.15-.78-1.83-1.02-.68-.24-1.4-.37-2.14-.37-1.36,0-2.52,.26-3.47,.79-.95,.53-1.72,1.23-2.31,2.12-.59,.89-1.02,1.9-1.29,3.03-.27,1.13-.41,2.3-.41,3.51s.13,2.28,.41,3.38c.27,1.09,.7,2.08,1.29,2.95,.59,.87,1.36,1.58,2.31,2.1,.95,.53,2.11,.79,3.47,.79,1.85,0,3.3-.57,4.34-1.7,.89-.97,1.49-2.21,1.79-3.72,.09-.43,.44-.76,.89-.76h4.08c.54,0,.98,.48,.9,1.01-.2,1.33-.56,2.55-1.07,3.66-.64,1.39-1.49,2.57-2.55,3.55-1.05,.98-2.29,1.72-3.7,2.24-1.41,.51-2.97,.77-4.67,.77-2.11,0-4.01-.37-5.69-1.1-1.69-.73-3.11-1.74-4.26-3.03-1.16-1.29-2.04-2.8-2.66-4.53-.62-1.74-.93-3.61-.93-5.61s.31-3.97,.93-5.73c.62-1.76,1.51-3.3,2.66-4.61,1.16-1.31,2.58-2.34,4.26-3.09,1.68-.75,3.58-1.12,5.69-1.12,1.52,0,2.95,.22,4.3,.66,1.35,.44,2.56,1.07,3.63,1.91,1.07,.84,1.95,1.87,2.64,3.11,.53,.94,.91,1.99,1.14,3.14,.11,.57-.31,1.1-.89,1.1h-4.12c-.4,0-.73-.29-.84-.68-.13-.44-.31-.85-.55-1.23Z"/><path class="d" d="M186.8,102.46c.62-1.76,1.51-3.3,2.66-4.61,1.16-1.31,2.58-2.34,4.26-3.09,1.68-.75,3.58-1.12,5.69-1.12s4.04,.37,5.71,1.12c1.67,.75,3.09,1.77,4.24,3.09,1.16,1.31,2.04,2.85,2.66,4.61,.62,1.76,.93,3.67,.93,5.73s-.31,3.88-.93,5.61c-.62,1.74-1.5,3.25-2.66,4.53-1.16,1.29-2.57,2.3-4.24,3.03-1.67,.73-3.57,1.1-5.71,1.1s-4.01-.37-5.69-1.1c-1.69-.73-3.11-1.74-4.26-3.03-1.16-1.29-2.04-2.8-2.66-4.53-.62-1.74-.93-3.61-.93-5.61s.31-3.97,.93-5.73Zm5.54,9.1c.27,1.09,.7,2.08,1.29,2.95,.59,.87,1.36,1.58,2.31,2.1,.95,.53,2.11,.79,3.47,.79s2.52-.26,3.47-.79c.95-.53,1.72-1.23,2.31-2.1,.59-.87,1.02-1.86,1.29-2.95,.27-1.09,.41-2.22,.41-3.38s-.13-2.38-.41-3.51c-.27-1.13-.7-2.14-1.29-3.03-.59-.89-1.36-1.59-2.31-2.12-.95-.53-2.11-.79-3.47-.79s-2.52,.26-3.47,.79c-.95,.53-1.72,1.23-2.31,2.12-.59,.89-1.02,1.9-1.29,3.03-.27,1.13-.41,2.3-.41,3.51s.13,2.28,.41,3.38Z"/><path class="d" d="M222.99,95.2v20.65c0,.5,.4,.9,.9,.9h11.62c.5,0,.9,.4,.9,.9v3.29c0,.5-.4,.9-.9,.9h-17.68c-.5,0-.9-.4-.9-.9v-25.74c0-.5,.4-.9,.9-.9h4.25c.5,0,.9,.4,.9,.9Z"/><path class="d" d="M245.72,95.2v20.65c0,.5,.4,.9,.9,.9h11.62c.5,0,.9,.4,.9,.9v3.29c0,.5-.4,.9-.9,.9h-17.68c-.5,0-.9-.4-.9-.9v-25.74c0-.5,.4-.9,.9-.9h4.25c.5,0,.9,.4,.9,.9Z"/><path class="d" d="M283.14,95.2v3.29c0,.5-.4,.9-.9,.9h-12.88c-.5,0-.9,.4-.9,.9v4.1c0,.5,.4,.9,.9,.9h11.69c.5,0,.9,.4,.9,.9v2.9c0,.5-.4,.9-.9,.9h-11.69c-.5,0-.9,.4-.9,.9v4.95c0,.5,.4,.9,.9,.9h13.19c.5,0,.9,.4,.9,.9v3.29c0,.5-.4,.9-.9,.9h-19.25c-.5,0-.9-.4-.9-.9v-25.74c0-.5,.4-.9,.9-.9h18.94c.5,0,.9,.4,.9,.9Z"/><path class="d" d="M303.65,121.63c-1.31,.55-2.64,.83-3.97,.83-2.11,0-4.01-.37-5.69-1.1-1.69-.73-3.11-1.74-4.26-3.03-1.16-1.29-2.04-2.8-2.66-4.53-.62-1.74-.93-3.61-.93-5.61s.31-3.97,.93-5.73c.62-1.76,1.51-3.3,2.66-4.61,1.16-1.31,2.58-2.34,4.26-3.09,1.68-.75,3.58-1.12,5.69-1.12,1.41,0,2.78,.21,4.11,.64,1.32,.42,2.52,1.05,3.59,1.87,1.07,.82,1.95,1.84,2.64,3.05,.53,.92,.9,1.94,1.12,3.07,.11,.57-.31,1.1-.89,1.1h-4.06c-.4,0-.74-.28-.87-.66-.39-1.22-1.02-2.15-1.9-2.81-1.03-.77-2.28-1.16-3.74-1.16-1.36,0-2.52,.26-3.47,.79-.95,.53-1.72,1.23-2.31,2.12-.59,.89-1.02,1.9-1.29,3.03-.27,1.13-.41,2.3-.41,3.51s.13,2.28,.41,3.38c.27,1.09,.7,2.08,1.29,2.95,.59,.87,1.36,1.58,2.31,2.1,.95,.53,2.11,.79,3.47,.79,2.01,0,3.55-.51,4.65-1.52,.87-.81,1.46-1.92,1.75-3.32,.12-.56-.31-1.1-.89-1.1h-4.14c-.5,0-.9-.4-.9-.9v-2.71c0-.5,.4-.9,.9-.9h9.77c.5,0,.9,.4,.9,.9v13.09c0,.5-.4,.9-.9,.9h-2.26c-.41,0-.76-.29-.83-.69l-.15-.77c-.13-.67-.95-.9-1.45-.43-.77,.74-1.6,1.3-2.47,1.67Z"/><path class="d" d="M337.21,95.2v3.29c0,.5-.4,.9-.9,.9h-12.88c-.5,0-.9,.4-.9,.9v4.1c0,.5,.4,.9,.9,.9h11.69c.5,0,.9,.4,.9,.9v2.9c0,.5-.4,.9-.9,.9h-11.69c-.5,0-.9,.4-.9,.9v4.95c0,.5,.4,.9,.9,.9h13.19c.5,0,.9,.4,.9,.9v3.29c0,.5-.4,.9-.9,.9h-19.25c-.5,0-.9-.4-.9-.9v-25.74c0-.5,.4-.9,.9-.9h18.94c.5,0,.9,.4,.9,.9Z"/><path class="d" d="M165.03,55.78v9.81c0,.67,.54,1.21,1.21,1.21h10.48c.67,0,1.21-.54,1.21-1.21v-9.81c0-.67,.54-1.21,1.21-1.21h4.59c.67,0,1.21,.54,1.21,1.21v29.44c0,.67-.54,1.21-1.21,1.21h-4.59c-.67,0-1.21-.54-1.21-1.21v-11.33c0-.67-.54-1.21-1.21-1.21h-10.48c-.67,0-1.21,.54-1.21,1.21v11.33c0,.67-.54,1.21-1.21,1.21h-4.59c-.67,0-1.21-.54-1.21-1.21v-29.44c0-.67,.54-1.21,1.21-1.21h4.59c.67,0,1.21,.54,1.21,1.21Z"/><path class="d" d="M214.99,55.83v3.48c0,.67-.54,1.21-1.21,1.21h-14.4c-.67,0-1.21,.54-1.21,1.21v4.41c0,.67,.54,1.21,1.21,1.21h13.02c.67,0,1.21,.54,1.21,1.21v3.03c0,.67-.54,1.21-1.21,1.21h-13.02c-.67,0-1.21,.54-1.21,1.21v5.39c0,.67,.54,1.21,1.21,1.21h14.76c.67,0,1.21,.54,1.21,1.21v3.48c0,.67-.54,1.21-1.21,1.21h-21.76c-.67,0-1.21-.54-1.21-1.21v-29.44c0-.67,.54-1.21,1.21-1.21h21.41c.67,0,1.21,.54,1.21,1.21Z"/><path class="d" d="M237.32,54.58c1.43,0,2.71,.23,3.86,.69,1.15,.46,2.13,1.09,2.94,1.9,.82,.8,1.44,1.73,1.87,2.79,.43,1.06,.65,2.19,.65,3.41,0,1.87-.39,3.49-1.18,4.86-.55,.95-1.34,1.75-2.38,2.39-.24,.15-.58,.49-.58,.79,0,.26,.3,.49,.49,.6,.27,.16,.52,.33,.75,.53,.56,.49,1.03,1.07,1.38,1.74,.36,.67,.62,1.41,.78,2.21,.16,.8,.28,1.61,.33,2.41,.03,.51,.06,1.1,.09,1.78,.03,.68,.08,1.38,.16,2.1,.04,.35,.05,.59,.09,.83,.18,1,1.45,2.83-.09,2.83h-5.04c-.56,0-1.03-.38-1.18-.92-.21-.8-.35-1.7-.42-2.69-.09-1.4-.22-2.74-.4-4.01-.24-1.66-.74-2.88-1.52-3.66-.77-.77-2.04-1.16-3.79-1.16h-5.8c-.67,0-1.21,.54-1.21,1.21v10.03c0,.67-.54,1.21-1.21,1.21h-4.59c-.67,0-1.21-.54-1.21-1.21v-29.44c0-.67,.54-1.21,1.21-1.21h15.97Zm-2.5,14.41c1.61,0,2.81-.36,3.61-1.07,.8-.71,1.2-1.87,1.2-3.48s-.4-2.67-1.2-3.37c-.8-.7-2.01-1.05-3.61-1.05h-6.47c-.67,0-1.21,.54-1.21,1.21v6.55c0,.67,.54,1.21,1.21,1.21h6.47Z"/><path class="d" d="M290.2,55.78v23.55c0,.67,.54,1.21,1.21,1.21h13.11c.67,0,1.21,.54,1.21,1.21v3.48c0,.67-.54,1.21-1.21,1.21h-20.11c-.67,0-1.21-.54-1.21-1.21v-29.44c0-.67,.54-1.21,1.21-1.21h4.59c.67,0,1.21,.54,1.21,1.21Z"/><path class="d" d="M323.5,54.58c2.05,0,3.96,.33,5.73,.98,1.77,.65,3.3,1.64,4.59,2.94,1.29,1.31,2.31,2.94,3.03,4.91,.73,1.96,1.09,4.27,1.09,6.91,0,2.32-.3,4.46-.89,6.42-.6,1.96-1.49,3.66-2.7,5.08-1.2,1.43-2.71,2.55-4.5,3.37-1.8,.82-3.92,1.23-6.36,1.23h-12.53c-.67,0-1.21-.54-1.21-1.21v-29.44c0-.67,.54-1.21,1.21-1.21h12.53Zm-.49,25.96c1.01,0,1.99-.16,2.94-.49,.95-.33,1.8-.87,2.54-1.63,.74-.76,1.34-1.75,1.78-2.97,.45-1.22,.67-2.71,.67-4.46,0-1.61-.16-3.06-.47-4.35-.31-1.29-.83-2.4-1.54-3.32-.71-.92-1.66-1.63-2.83-2.12-1.17-.49-2.63-.74-4.35-.74h-3.79c-.67,0-1.21,.54-1.21,1.21v17.66c0,.67,.54,1.21,1.21,1.21h5.04Z"/><path class="d" d="M160.46,130.39v4.14c0,.19,.23,.28,.36,.15l4.58-4.51c.05-.05,.12-.08,.19-.08h1.04c.44,0,.13,.36,.13,.36l-3.58,3.48c-.1,.09-.11,.25-.03,.35l3.91,5.33s.29,.39-.09,.39h-1.14c-.09,0-.17-.04-.22-.11l-3.32-4.64c-.09-.13-.28-.15-.4-.04l-1.34,1.25c-.05,.05-.09,.12-.09,.2v3.06c0,.16-.13,.29-.29,.29h-.73c-.16,0-.29-.13-.29-.29v-9.32c0-.16,.13-.29,.29-.29h.73c.16,0,.29,.13,.29,.29Z"/><path class="d" d="M184.29,130.28l3.64,9.32c.07,.19-.07,.4-.27,.4h-.82c-.12,0-.23-.08-.27-.19l-.95-2.61c-.04-.11-.14-.18-.25-.18h-3.81c-.11,0-.21,.07-.25,.18l-.97,2.62c-.04,.11-.15,.19-.27,.19h-.81c-.37,0-.18-.38-.18-.38l3.63-9.34c.04-.11,.15-.19,.27-.19h1.06c.12,0,.23,.07,.27,.19Zm.46,5.63c.19,0,.32-.18,.25-.36l-1.39-3.85c-.05-.14-.25-.14-.3,0l-1.41,3.85c-.06,.18,.07,.36,.25,.36h2.59Z"/><path class="d" d="M270,130.28l3.64,9.32c.07,.19-.07,.4-.27,.4h-.82c-.12,0-.23-.08-.27-.19l-.95-2.61c-.04-.11-.14-.18-.25-.18h-3.81c-.11,0-.21,.07-.25,.18l-.97,2.62c-.04,.11-.15,.19-.27,.19h-.81c-.37,0-.18-.38-.18-.38l3.63-9.34c.04-.11,.15-.19,.27-.19h1.06c.12,0,.23,.07,.27,.19Zm.46,5.63c.19,0,.32-.18,.25-.36l-1.39-3.85c-.05-.14-.25-.14-.3,0l-1.41,3.85c-.06,.18,.07,.36,.25,.36h2.59Z"/><path class="d" d="M199.71,130.88v-.46c0-.32,.38-.31,.38-.31h7.23s.31,0,.31,.35v.41c0,.34-.36,.35-.36,.35h-2.67c-.15,0-.27,.12-.27,.27v8.23c0,.16-.13,.29-.29,.29h-.73c-.16,0-.29-.13-.29-.29v-8.23c0-.15-.12-.27-.27-.27h-2.62s-.41,0-.41-.33Z"/><path class="d" d="M221.68,130.39v3.7c0,.15,.12,.27,.27,.27h4.68c.15,0,.27-.12,.27-.27v-3.7c0-.16,.13-.29,.29-.29h.73c.16,0,.29,.13,.29,.29v9.32c0,.16-.13,.29-.29,.29h-.73c-.16,0-.29-.13-.29-.29v-3.98c0-.15-.12-.27-.27-.27h-4.68c-.15,0-.27,.12-.27,.27v3.98c0,.16-.13,.29-.29,.29h-.73c-.16,0-.29-.13-.29-.29v-9.32c0-.16,.13-.29,.29-.29h.73c.16,0,.29,.13,.29,.29Z"/><path class="d" d="M243.95,130.27l2.89,7.7c.06,.15,.28,.16,.34,0l2.9-7.7c.04-.11,.14-.17,.25-.17h1.35c.15,0,.27,.12,.27,.27v9.34c0,.16-.13,.29-.29,.29h-.66c-.16,0-.29-.13-.29-.29v-7.21c0-.15-.21-.19-.26-.05l-2.79,7.36c-.04,.11-.15,.19-.27,.19h-.72c-.12,0-.23-.07-.27-.19l-2.79-7.36c-.05-.14-.26-.1-.26,.05v7.21c0,.16-.13,.29-.29,.29h-.67c-.16,0-.29-.13-.29-.29v-9.34c0-.15,.12-.27,.27-.27h1.35c.11,0,.21,.07,.25,.17Z"/><path class="d" d="M288.03,130.35l4.79,7.34c.08,.13,.29,.07,.29-.09v-7.22c0-.16,.13-.29,.29-.29h.66c.16,0,.29,.13,.29,.29v9.32c0,.16-.13,.29-.29,.29h-1l-.23-.12-4.85-7.41c-.08-.12-.27-.07-.27,.08v7.16c0,.16-.13,.29-.29,.29h-.67c-.16,0-.29-.13-.29-.29v-9.32c0-.16,.13-.29,.29-.29h.83c.25,0,.44,.25,.44,.25Z"/><path class="d" d="M311.55,130.1c1.53,0,2.7,.39,3.52,1.16,.82,.78,1.23,1.96,1.23,3.55,0,.83-.09,1.57-.28,2.21-.18,.64-.47,1.18-.86,1.62-.39,.44-.88,.77-1.48,1.01-.6,.23-1.31,.35-2.14,.35h-3.13c-.15,0-.27-.12-.27-.27v-9.37c0-.15,.12-.27,.27-.27h3.13Zm.11,8.79c.15,0,.33-.01,.56-.03,.22-.02,.46-.08,.71-.17,.25-.09,.5-.22,.74-.38s.46-.39,.66-.68c.19-.29,.35-.65,.48-1.08,.13-.43,.19-.95,.19-1.56s-.06-1.12-.17-1.59c-.12-.47-.3-.87-.57-1.19-.26-.33-.6-.58-1.02-.75-.42-.17-.93-.26-1.54-.26h-1.95c-.15,0-.27,.12-.27,.27v7.15c0,.15,.12,.27,.27,.27h1.92Z"/><path class="d" d="M336.5,139.28c-.68,.63-1.64,.95-2.89,.95s-2.27-.3-2.99-.91c-.72-.61-1.07-1.57-1.07-2.89v-6.03c0-.16,.13-.29,.29-.29h.73c.16,0,.29,.13,.29,.29v6.03c0,.89,.23,1.56,.71,2.02,.47,.46,1.15,.69,2.04,.69s1.48-.23,1.92-.69c.44-.46,.66-1.13,.66-2.02v-6.03c0-.16,.13-.29,.29-.29h.73c.16,0,.29,.13,.29,.29v6.03c0,1.27-.34,2.22-1.01,2.85Z"/><path class="h" d="M0,0V140.9H9.83L26.06,50.69l21.26,3.82-15.54,86.38h19.93l5.79-32.21,21.26,3.82-5.11,28.38h20.12l13.84-76.92,21.26,3.82-13.15,73.1h23.02V0H0ZM60.92,89.26l11.48-63.82,21.26,3.82-11.48,63.82-21.26-3.82Z"/><path class="d" d="M268.73,55.36l11,29.43c.3,.79-.29,1.63-1.13,1.63h-4.66c-.52,0-.98-.33-1.15-.82l-1.85-5.45c-.17-.49-.63-.82-1.15-.82h-10.19c-.51,0-.97,.32-1.14,.81l-1.93,5.48c-.17,.48-.63,.81-1.14,.81h-4.44c-.85,0-1.43-.85-1.13-1.64l11.13-29.43c.18-.47,.63-.78,1.13-.78h5.5c.5,0,.96,.31,1.13,.79Zm-.94,18.75c.51,0,.87-.51,.71-.99l-3.24-9.32c-.16-.46-.81-.46-.97,0l-3.35,9.31c-.17,.49,.19,1,.7,1h6.14Z"/></g></g></g></svg>