<?xml version="1.0" encoding="UTF-8"?><svg xmlns="http://www.w3.org/2000/svg" viewBox="0 0 263.63 158.81"><defs><style>.d{fill:#fff;}.e{fill:#0e2630;}.f{fill:#ffca49;}</style></defs><g id="a"/><g id="b"><g id="c"><g><rect class="d" width="263.63" height="158.81"/><g><rect class="e" x="14.5" y="15.58" width="234.64" height="127.66"/><g><g><path class="f" d="M31.24,38.04c.75-.09,1.23-.48,1.23-1.06v-8.14c0-.82,0-.99-1.26-1.24v-.43h1.33c1.53,0,1.91-.07,1.91-.07l.09,.07s-.56,.65-.56,2.06v7.75c0,.49-.09,.87-.09,.87l1.62,.15-.07,.48-4.19,.1v-.54Z"/><path class="f" d="M42.84,38.04c.77-.09,1.23-.44,1.23-1.06v-7.66c0-1.17-.27-1.51-1.4-1.72v-.43h.51c.83,0,1.7-.07,1.7-.07,0,0,.2,.39,.63,.89l6.16,7.12c.22,.27,.49,.63,.68,.9v-7.08c0-.75-.02-1.14-1.4-1.28v-.48h3.23l.09,.24s-1.17,.32-1.17,1.74v9.46h-.44l-7.23-8.55c-.2-.24-.44-.56-.61-.82v7.73c0,.51-.09,.92-.09,.92l1.53,.1-.07,.48-3.35,.1v-.54Z"/><path class="f" d="M64.37,38.04c.77-.09,1.23-.49,1.23-1.11v-9.09h-1.69c-1.17,0-1.69,.36-2.33,2.11h-.58l.53-2.88s.44,.1,1.14,.1h7.97c.7,0,1.23-.1,1.23-.1l-.53,2.88h-.58c.09-1.75-.48-2.11-1.8-2.11h-1.69l-.17,.17v8.92c0,.51-.09,.92-.09,.92l1.7,.15-.07,.48-4.27,.1v-.54Z"/><path class="f" d="M78.75,38.04c.77-.09,1.23-.44,1.23-1.06v-8.14c0-.82-.09-.99-1.4-1.24v-.43h7.01c.7,0,1.23-.07,1.23-.07l-.53,2.84h-.58c.09-1.75-.48-2.11-1.84-2.11h-2.23l-.17,.17v4.43h3.15l.14-.97,.63-.1v3h-.8v-1.26h-2.95l-.17,.17v3.64c0,.51-.09,.95-.09,.95h2.67c1.46,0,1.67-.32,2.52-2.11h.58l-.63,2.77h-5.31c-.85,0-2.47,.05-2.47,.05v-.54Z"/><path class="f" d="M94.66,38.04c.75-.09,1.23-.48,1.23-1.06v-8.14c0-.82-.09-.99-1.4-1.24v-.43h3.95c3.06,0,4.22,1.26,4.22,2.74,0,1.6-1.43,2.69-2.25,3.12v.22l2.45,3.59c.73,1.06,1.07,1.09,1.52,1.12l.19,.02-.07,.54h-2.47l-.07-.05s-.36-.85-1.06-1.87l-2.11-3.12h-1.24l-.17,.17v3.32c0,.49-.09,.87-.09,.87l1.53,.15-.07,.48-4.1,.1v-.54Zm4.15-5.21c1.02,0,2.2-.82,2.2-2.47,0-1.29-.73-2.52-2.83-2.52h-.63l-.17,.17v4.82h1.43Z"/><path class="f" d="M111.32,38.04c.77-.09,1.23-.44,1.23-1.06v-7.66c0-1.17-.27-1.51-1.4-1.72v-.43h.51c.83,0,1.7-.07,1.7-.07,0,0,.2,.39,.63,.89l6.16,7.12c.22,.27,.49,.63,.68,.9v-7.08c0-.75-.02-1.14-1.4-1.28v-.48h3.23l.09,.24s-1.17,.32-1.17,1.74v9.46h-.44l-7.23-8.55c-.2-.24-.44-.56-.61-.82v7.73c0,.51-.09,.92-.09,.92l1.53,.1-.07,.48-3.35,.1v-.54Z"/><path class="f" d="M129.15,38.04c.72-.07,1-.43,1.14-.77l4.03-10.04,.7-.15,3.78,9.67c.46,1.16,.77,1.24,1.29,1.33l-.07,.46h-.73c-.63,0-2.59,.05-2.59,.05v-.58c.48-.02,.9-.15,.71-.66l-1.04-2.72h-4.07l-.22,.17-1.17,3.06,1.45,.2-.07,.48h-3.15v-.49Zm5.16-9.06l-1.89,4.92h3.69l-1.46-3.88c-.14-.34-.27-.78-.34-1.04Z"/><path class="f" d="M148.76,38.04c.77-.09,1.23-.49,1.23-1.11v-9.09h-1.69c-1.17,0-1.68,.36-2.33,2.11h-.58l.53-2.88s.44,.1,1.14,.1h7.97c.7,0,1.23-.1,1.23-.1l-.53,2.88h-.58c.08-1.75-.48-2.11-1.8-2.11h-1.69l-.17,.17v8.92c0,.51-.09,.92-.09,.92l1.7,.15-.07,.48-4.27,.1v-.54Z"/><path class="f" d="M163.12,38.04c.75-.09,1.23-.48,1.23-1.06v-8.14c0-.82,0-.99-1.26-1.24v-.43h1.33c1.53,0,1.91-.07,1.91-.07l.09,.07s-.56,.65-.56,2.06v7.75c0,.49-.09,.87-.09,.87l1.62,.15-.07,.48-4.19,.1v-.54Z"/><path class="f" d="M180.67,26.98c3.56,0,5.82,2.4,5.82,5.48,0,3.25-2.49,6.28-6.25,6.28-3.49,0-5.75-2.64-5.75-5.74s2.2-6.03,6.18-6.03Zm-.09,11.08c2.67,0,4.22-2.69,4.22-5.17s-1.6-5.23-4.43-5.23c-2.66,0-4.2,2.4-4.2,4.9s1.6,5.5,4.41,5.5Z"/><path class="f" d="M194,38.04c.77-.09,1.23-.44,1.23-1.06v-7.66c0-1.17-.27-1.51-1.4-1.72v-.43h.51c.83,0,1.7-.07,1.7-.07,0,0,.2,.39,.63,.89l6.16,7.12c.22,.27,.49,.63,.68,.9v-7.08c0-.75-.02-1.14-1.4-1.28v-.48h3.23l.09,.24s-1.17,.32-1.17,1.74v9.46h-.44l-7.23-8.55c-.2-.24-.44-.56-.61-.82v7.73c0,.51-.09,.92-.09,.92l1.53,.1-.07,.48-3.35,.1v-.54Z"/><path class="f" d="M211.84,38.04c.71-.07,1-.43,1.14-.77l4.03-10.04,.7-.15,3.78,9.67c.46,1.16,.77,1.24,1.29,1.33l-.07,.46h-.73c-.63,0-2.59,.05-2.59,.05v-.58c.48-.02,.9-.15,.71-.66l-1.04-2.72h-4.07l-.22,.17-1.17,3.06,1.45,.2-.07,.48h-3.15v-.49Zm5.16-9.06l-1.89,4.92h3.69l-1.46-3.88c-.14-.34-.27-.78-.34-1.04Z"/><path class="f" d="M229.57,38.04c.77-.09,1.14-.44,1.14-1.06v-8.14c0-.82,0-.99-1.26-1.24v-.43h1.33c1.53,0,1.91-.07,1.91-.07l.08,.07s-.56,.65-.56,2.06v7.69c0,.51-.08,.94-.08,.94h2.84c1.46,0,1.74-.53,2.59-2.45h.58l-.7,3.12h-5.48c-.85,0-2.38,.05-2.38,.05v-.54Z"/></g><g><path class="f" d="M31.2,114.39c4.09-.49,6.81-2.53,7-6.03l1.95-45.53c.19-4.77-.49-5.55-7.49-7.1v-2.92h7.3c9.63,0,15.47-.39,15.47-.39l.39,.39s.97,3.5,2.82,8.95l11.77,30.74c.68,1.65,1.36,3.89,1.85,5.64l15.47-38.33c.88-2.14,2.14-7,2.14-7h4.77c7.88,0,12.74-.39,12.74-.39l.49,.39s-3.31,4.09-3.02,12.26l1.85,43.58c.1,3.02-.29,4.96-.29,4.96l8.07,.58-.39,3.21-26.85,.58v-3.6c4.09-.49,6.62-2.43,6.52-5.74l-1.65-45.14-21.99,54.19-3.89-1.17-20.43-53.41s-.1,2.04-.19,3.89l-1.65,41.35c-.1,2.72-.68,5.25-.68,5.25l8.95,.58-.39,3.21-20.62,.58v-3.6Z"/><path class="f" d="M121,114.39c4.09-.49,6.52-2.53,6.52-6.03V62.83c0-4.67-.49-5.64-7.49-7.1v-2.92h25c17.8,0,24.71,6.52,24.71,14.2,0,9.24-10.22,14.79-13.33,16.25,6.03,1.26,17.41,5.06,17.41,16.15,0,10.22-9.92,18.29-27.24,18.29h-8.95c-6.52,0-16.64,.29-16.64,.29v-3.6Zm24.42-1.75c9.24,0,14.11-5.35,14.11-11.77,0-7.2-5.45-14.01-16.25-14.01h-1.56l-1.17,1.17v19.26c0,2.92-.49,5.35-.49,5.35h5.35Zm3.02-30.84c2.43-.19,7.3-4.38,7.3-12.45,0-6.13-2.63-11.48-11.19-11.48h-2.82l-1.17,1.17v22.76h7.88Z"/><path class="f" d="M174.99,114.39c3.79-.39,5.64-2.43,6.52-4.57l22.57-56.52,5.93-1.26,21.31,55.35c1.65,4.38,3.11,6.71,6.81,7.2l-.39,3.11h-3.99c-4.57,0-18.97,.39-18.97,.39v-3.79c2.63-.1,4.96-.97,3.89-3.89l-4.57-12.55h-20.72l-1.65,1.17-5.45,14.3,8.37,1.07-.58,3.31h-19.07v-3.31Zm28.7-46.5l-9.44,24.61h18l-6.13-17.12c-.78-2.04-1.85-5.55-2.43-7.49Z"/></g><g><path class="f" d="M31.22,131.44c.42-.05,.69-.27,.69-.59v-4.58c0-.46,0-.56-.71-.7v-.24h.75c.86,0,1.07-.04,1.07-.04l.05,.04s-.32,.36-.32,1.16v4.36c0,.28-.05,.49-.05,.49l.91,.09-.04,.27-2.36,.06v-.31Z"/><path class="f" d="M34.54,131.47c.43-.05,.59-.28,.59-.62v-2.33c0-.41,0-.65-.29-.65h-.43v-.26c.94-.19,1.53-.45,1.53-.45l.03,.03s-.09,.32-.1,1.17c.35-.52,1.02-1.06,1.82-1.06,.66,0,1.09,.36,1.09,1.29v2.26c0,.29-.05,.51-.05,.51l.81,.1-.04,.24-2.06,.06v-.28c.43-.05,.55-.28,.55-.62v-2.05c0-.73-.28-.92-.66-.92-.44,0-1.02,.26-1.43,.67v2.3c0,.29-.05,.51-.05,.51l.77,.1-.04,.24-2.06,.06v-.28Z"/><path class="f" d="M40.74,128.52c0-.28,.03-.62,.03-.62h-.63v-.29s.42-.09,.65-.3l.35-1.04h.43l.03,.04s-.09,.28-.09,.96v.14h1.49l-.07,.46h-1.32l-.1,.1v2.43c0,.56,.16,.86,.67,.86,.43,0,.86-.2,.86-.2l.12,.18s-.55,.59-1.38,.59c-.68,0-1.06-.38-1.06-1.25v-2.06Z"/><path class="f" d="M45.9,127.3c.82,0,1.64,.54,1.67,1.59,0,0-.25,.1-.44,.12l-2.38,.34-.1,.11c.04,.87,.48,1.72,1.55,1.72,.78,0,1.24-.46,1.24-.46l.11,.2s-.5,.9-1.64,.9c-1.36,0-2.03-1.06-2.03-2.18,0-1.3,.86-2.36,2.02-2.36Zm-1.24,1.71l2.01-.26s-.08-1.09-.92-1.09c-.64,0-1.01,.63-1.09,1.35Z"/><path class="f" d="M48.57,131.47c.43-.05,.59-.28,.59-.62v-2.33c0-.41,0-.65-.29-.65h-.43v-.26c.94-.19,1.55-.45,1.55-.45l.03,.03s-.09,.32-.11,1.22c.29-.54,.79-1.11,1.29-1.11,.23,0,.52,.12,.52,.44,0,.29-.2,.47-.45,.47-.22,0-.25-.16-.47-.16-.33,0-.64,.32-.85,.56v2.25c0,.29-.05,.52-.05,.52l.91,.09-.04,.24-2.2,.06v-.28Z"/><path class="f" d="M52.45,131.47c.43-.05,.59-.28,.59-.62v-2.33c0-.41,0-.65-.29-.65h-.43v-.26c.94-.19,1.53-.45,1.53-.45l.03,.03s-.09,.32-.1,1.17c.35-.52,1.02-1.06,1.82-1.06,.66,0,1.09,.36,1.09,1.29v2.26c0,.29-.05,.51-.05,.51l.81,.1-.04,.24-2.06,.06v-.28c.43-.05,.55-.28,.55-.62v-2.05c0-.73-.28-.92-.66-.92-.44,0-1.02,.26-1.43,.67v2.3c0,.29-.05,.51-.05,.51l.77,.1-.04,.24-2.06,.06v-.28Z"/><path class="f" d="M60.26,129.32l.33-.05c0-.2,0-.76-.04-1.02-.07-.35-.25-.61-.6-.61-.65,0-1.01,.92-1.01,.92h-.31l-.16-.72s.7-.54,1.77-.54c.9,0,1.14,.36,1.14,1.37v2.2c0,.31,.04,.45,.26,.45,.26,0,.53-.19,.53-.19l.12,.2s-.45,.51-1.02,.51c-.36,0-.65-.21-.65-.68v-.23s-.51,.91-1.49,.91c-.63,0-1-.45-1-.97,0-.92,1.14-1.4,2.14-1.55Zm.33,1.4v-1.13l-.3,.05c-.55,.09-1.32,.37-1.32,1.06,0,.38,.25,.59,.54,.59,.37,0,.83-.36,1.08-.57Z"/><path class="f" d="M63.38,128.52c0-.28,.03-.62,.03-.62h-.63v-.29s.42-.09,.65-.3l.35-1.04h.43l.03,.04s-.09,.28-.09,.96v.14h1.49l-.07,.46h-1.32l-.1,.1v2.43c0,.56,.16,.86,.67,.86,.43,0,.86-.2,.86-.2l.12,.18s-.55,.59-1.38,.59c-.68,0-1.06-.38-1.06-1.25v-2.06Z"/><path class="f" d="M66.52,131.47c.43-.05,.59-.28,.59-.62v-2.33c0-.41,0-.65-.29-.65h-.43v-.26c1.4-.33,1.6-.45,1.6-.45v.03s-.1,.32-.1,1.09v2.57c0,.29-.05,.52-.05,.52l.81,.09-.04,.24-2.11,.06v-.28Zm.38-5.67c0-.28,.24-.52,.52-.52s.52,.24,.52,.52-.24,.52-.52,.52-.52-.24-.52-.52Z"/><path class="f" d="M71.68,127.3c1.4,0,2.12,.92,2.12,2.1s-.74,2.44-2.27,2.44c-1.35,0-2.1-.95-2.1-2.17,0-1.12,.62-2.37,2.25-2.37Zm-.02,4.21c.81,0,1.25-.82,1.25-1.85,0-.95-.38-2.04-1.35-2.04-.88,0-1.25,.9-1.25,1.82s.39,2.07,1.35,2.07Z"/><path class="f" d="M74.81,131.47c.43-.05,.59-.28,.59-.62v-2.33c0-.41,0-.65-.29-.65h-.43v-.26c.94-.19,1.53-.45,1.53-.45l.03,.03s-.09,.32-.1,1.17c.34-.52,1.01-1.06,1.82-1.06,.66,0,1.09,.36,1.09,1.29v2.26c0,.29-.05,.51-.05,.51l.81,.1-.04,.24-2.06,.06v-.28c.43-.05,.55-.28,.55-.62v-2.05c0-.73-.28-.92-.66-.92-.44,0-1.02,.26-1.43,.67v2.3c0,.29-.05,.51-.05,.51l.77,.1-.04,.24-2.06,.06v-.28Z"/><path class="f" d="M82.61,129.32l.33-.05c0-.2,0-.76-.04-1.02-.07-.35-.25-.61-.6-.61-.65,0-1.02,.92-1.02,.92h-.31l-.16-.72s.7-.54,1.77-.54c.9,0,1.14,.36,1.14,1.37v2.2c0,.31,.04,.45,.26,.45,.26,0,.53-.19,.53-.19l.12,.2s-.45,.51-1.01,.51c-.36,0-.65-.21-.65-.68v-.23s-.51,.91-1.49,.91c-.63,0-1-.45-1-.97,0-.92,1.14-1.4,2.14-1.55Zm.33,1.4v-1.13l-.3,.05c-.55,.09-1.32,.37-1.32,1.06,0,.38,.25,.59,.54,.59,.37,0,.83-.36,1.08-.57Z"/><path class="f" d="M85.17,131.47c.43-.05,.59-.28,.59-.62v-4.86c0-.41,0-.65-.29-.65h-.4v-.26c1.1-.24,1.54-.43,1.54-.43l.03,.03s-.1,.35-.1,1.09v5.08c0,.29-.05,.52-.05,.52l.81,.09-.04,.24-2.11,.06v-.28Z"/><path class="f" d="M90.61,131.44c.43-.05,.67-.24,.69-.59l.18-4.58c.02-.46-.04-.56-.78-.7v-.24h.77c.77,0,1.05-.04,1.05-.04l.04,.04s.12,.5,.28,.88l1.46,3.75c.07,.16,.13,.37,.18,.55l1.86-4.52c.08-.2,.21-.66,.21-.66h.25c.84,0,1.03-.04,1.03-.04l.05,.04s-.34,.39-.31,1.21l.18,4.34c0,.3-.03,.49-.03,.49l.84,.06-.04,.27-2.29,.06v-.31c.42-.05,.7-.24,.69-.56l-.21-4.72-2.3,5.56-.3-.11-2.21-5.44s-.02,.19-.03,.37l-.17,4.31c0,.27-.07,.52-.07,.52l.88,.06-.04,.27-1.89,.06v-.31Z"/><path class="f" d="M101.49,129.32l.33-.05c0-.2,0-.76-.04-1.02-.07-.35-.25-.61-.6-.61-.65,0-1.02,.92-1.02,.92h-.31l-.16-.72s.7-.54,1.77-.54c.9,0,1.14,.36,1.14,1.37v2.2c0,.31,.04,.45,.26,.45,.26,0,.53-.19,.53-.19l.12,.2s-.45,.51-1.01,.51c-.36,0-.65-.21-.65-.68v-.23s-.51,.91-1.49,.91c-.63,0-1-.45-1-.97,0-.92,1.14-1.4,2.14-1.55Zm.33,1.4v-1.13l-.3,.05c-.55,.09-1.32,.37-1.32,1.06,0,.38,.25,.59,.54,.59,.37,0,.83-.36,1.08-.57Z"/><path class="f" d="M104.27,130.46h.29c.06,.81,.62,1.05,1.08,1.05s.8-.25,.8-.65c0-1.02-2.19-.96-2.19-2.35,0-.71,.55-1.22,1.56-1.22,.57,0,1.2,.17,1.2,.17l-.19,.99h-.3c0-.78-.66-.83-.86-.83-.52,0-.72,.32-.72,.61,0,1.02,2.18,.83,2.18,2.35,0,.79-.62,1.25-1.53,1.25-.44,0-1.44-.11-1.44-.65,0-.19,.12-.73,.12-.73Z"/><path class="f" d="M108.59,128.52c0-.28,.03-.62,.03-.62h-.63v-.29s.42-.09,.65-.3l.35-1.04h.43l.03,.04s-.09,.28-.09,.96v.14h1.49l-.07,.46h-1.32l-.1,.1v2.43c0,.56,.16,.86,.67,.86,.43,0,.86-.2,.86-.2l.12,.18s-.55,.59-1.38,.59c-.68,0-1.06-.38-1.06-1.25v-2.06Z"/><path class="f" d="M113.75,127.3c.82,0,1.64,.54,1.67,1.59,0,0-.25,.1-.44,.12l-2.38,.34-.1,.11c.04,.87,.48,1.72,1.55,1.72,.78,0,1.24-.46,1.24-.46l.11,.2s-.5,.9-1.64,.9c-1.36,0-2.03-1.06-2.03-2.18,0-1.3,.86-2.36,2.02-2.36Zm-1.24,1.71l2.01-.26s-.08-1.09-.92-1.09c-.64,0-1.01,.63-1.09,1.35Z"/><path class="f" d="M116.42,131.47c.43-.05,.59-.28,.59-.62v-2.33c0-.41,0-.65-.29-.65h-.43v-.26c.94-.19,1.55-.45,1.55-.45l.03,.03s-.09,.32-.12,1.22c.29-.54,.8-1.11,1.29-1.11,.23,0,.52,.12,.52,.44,0,.29-.2,.47-.45,.47-.22,0-.25-.16-.47-.16-.33,0-.64,.32-.85,.56v2.25c0,.29-.05,.52-.05,.52l.91,.09-.04,.24-2.2,.06v-.28Z"/><path class="f" d="M124.99,127.3c1.4,0,2.12,.92,2.12,2.1s-.74,2.44-2.27,2.44c-1.35,0-2.1-.95-2.1-2.17,0-1.12,.62-2.37,2.25-2.37Zm-.02,4.21c.81,0,1.25-.82,1.25-1.85,0-.95-.38-2.04-1.35-2.04-.88,0-1.25,.9-1.25,1.82s.39,2.07,1.35,2.07Z"/><path class="f" d="M128.1,131.47c.43-.05,.59-.28,.59-.62v-2.95h-.6v-.29l.6-.21v-.26c0-1.43,.71-2.39,1.95-2.39,.46,0,1.02,.16,1.02,.56,0,.18-.14,.36-.4,.36-.34,0-.56-.49-1.07-.49-.49,0-.72,.46-.72,1.69v.53h1.35l-.08,.46h-1.18l-.1,.1v2.88c0,.29-.05,.52-.05,.52l1.01,.09-.04,.24-2.3,.06v-.28Z"/><path class="f" d="M134.13,131.44c.43-.05,.69-.25,.69-.59v-4.58c0-.46-.05-.56-.79-.7v-.24h2.24c1.61,0,2.23,.64,2.23,1.4s-.56,1.24-1.14,1.57c.45,.1,1.61,.44,1.61,1.61,0,1.02-.87,1.81-2.59,1.81h-.86c-.48,0-1.39,.03-1.39,.03v-.31Zm2.1-.1c1.47,0,1.78-.64,1.78-1.29,0-1.48-1.61-1.44-1.99-1.44h-.26l-.1,.1v2.11c0,.29-.05,.53-.05,.53h.61Zm.42-3.1c.48-.03,.92-.72,.92-1.33,0-.56-.37-1.21-1.36-1.21h-.45l-.1,.1v2.44h.99Z"/><path class="f" d="M140.42,128.52c0-.41,0-.65-.29-.65h-.34v-.27c.93-.16,1.46-.35,1.46-.35l.04,.03s-.09,.27-.09,1.01v2.05c0,.73,.26,.92,.65,.92,.44,0,.98-.26,1.39-.68v-2.05c0-.41,0-.65-.29-.65h-.32v-.27c.92-.16,1.44-.35,1.44-.35l.04,.03s-.09,.27-.09,1.01v2.53c0,.55,.22,.55,.54,.55h.27l-.03,.26c-1.04,.11-1.57,.19-1.57,.19l-.04-.03s.09-.28,.09-.52v-.5c-.35,.51-.98,1.07-1.78,1.07-.67,0-1.08-.36-1.08-1.28v-2.03Z"/><path class="f" d="M145.73,130.46h.29c.06,.81,.62,1.05,1.08,1.05s.79-.25,.79-.65c0-1.02-2.19-.96-2.19-2.35,0-.71,.55-1.22,1.56-1.22,.57,0,1.2,.17,1.2,.17l-.19,.99h-.3c0-.78-.66-.83-.86-.83-.52,0-.72,.32-.72,.61,0,1.02,2.18,.83,2.18,2.35,0,.79-.62,1.25-1.53,1.25-.44,0-1.44-.11-1.44-.65,0-.19,.12-.73,.12-.73Z"/><path class="f" d="M149.58,131.47c.43-.05,.59-.28,.59-.62v-2.33c0-.41,0-.65-.29-.65h-.43v-.26c1.4-.33,1.6-.45,1.6-.45v.03s-.1,.32-.1,1.09v2.57c0,.29-.05,.52-.05,.52l.81,.09-.04,.24-2.11,.06v-.28Zm.38-5.67c0-.28,.24-.52,.52-.52s.52,.24,.52,.52-.24,.52-.52,.52-.52-.24-.52-.52Z"/><path class="f" d="M152.51,131.47c.43-.05,.59-.28,.59-.62v-2.33c0-.41,0-.65-.29-.65h-.43v-.26c.94-.19,1.53-.45,1.53-.45l.03,.03s-.09,.32-.1,1.17c.34-.52,1.02-1.06,1.82-1.06,.66,0,1.09,.36,1.09,1.29v2.26c0,.29-.05,.51-.05,.51l.81,.1-.04,.24-2.06,.06v-.28c.43-.05,.55-.28,.55-.62v-2.05c0-.73-.28-.92-.66-.92-.44,0-1.02,.26-1.43,.67v2.3c0,.29-.05,.51-.05,.51l.77,.1-.04,.24-2.06,.06v-.28Z"/><path class="f" d="M160.3,127.3c.82,0,1.64,.54,1.67,1.59,0,0-.25,.1-.44,.12l-2.38,.34-.1,.11c.04,.87,.48,1.72,1.55,1.72,.79,0,1.24-.46,1.24-.46l.1,.2s-.5,.9-1.64,.9c-1.36,0-2.03-1.06-2.03-2.18,0-1.3,.86-2.36,2.02-2.36Zm-1.24,1.71l2.01-.26s-.08-1.09-.92-1.09c-.64,0-1.01,.63-1.09,1.35Z"/><path class="f" d="M163.1,130.46h.29c.06,.81,.62,1.05,1.08,1.05s.79-.25,.79-.65c0-1.02-2.19-.96-2.19-2.35,0-.71,.55-1.22,1.56-1.22,.57,0,1.2,.17,1.2,.17l-.19,.99h-.3c0-.78-.66-.83-.86-.83-.52,0-.72,.32-.72,.61,0,1.02,2.18,.83,2.18,2.35,0,.79-.62,1.25-1.53,1.25-.44,0-1.44-.11-1.44-.65,0-.19,.12-.73,.12-.73Z"/><path class="f" d="M167.08,130.46h.29c.06,.81,.62,1.05,1.08,1.05s.79-.25,.79-.65c0-1.02-2.19-.96-2.19-2.35,0-.71,.55-1.22,1.56-1.22,.57,0,1.2,.17,1.2,.17l-.19,.99h-.3c0-.78-.66-.83-.86-.83-.52,0-.72,.32-.72,.61,0,1.02,2.18,.83,2.18,2.35,0,.79-.62,1.25-1.53,1.25-.44,0-1.44-.11-1.44-.65,0-.19,.12-.73,.12-.73Z"/><path class="f" d="M172.89,131.44c.4-.04,.56-.24,.64-.43l2.27-5.65,.39-.09,2.13,5.44c.26,.65,.43,.7,.73,.75l-.04,.26h-.41c-.35,0-1.46,.03-1.46,.03v-.33c.27,0,.51-.09,.4-.37l-.58-1.53h-2.29l-.12,.1-.66,1.72,.81,.11-.04,.27h-1.77v-.28Zm2.9-5.09l-1.06,2.77h2.08l-.82-2.18c-.08-.19-.15-.44-.19-.58Z"/><path class="f" d="M182.07,127.3c.35,0,.68,.06,.68,.06v-1.37c0-.41,0-.65-.29-.65h-.4v-.26c1.1-.24,1.54-.43,1.54-.43l.03,.03s-.1,.35-.1,1.09v5.05c0,.55,.22,.55,.54,.55h.27l-.03,.26c-1.04,.11-1.53,.18-1.53,.18l-.03-.03s.04-.27,.04-.51v-.2c-.26,.38-.65,.78-1.37,.78-1.18,0-1.8-1.03-1.8-2.08,0-1.21,.81-2.46,2.45-2.46Zm.68,3.56v-2.69c0-.44-.38-.51-.69-.51-.98,0-1.61,.7-1.61,1.81,0,.92,.44,1.81,1.3,1.81,.47,0,.84-.27,1-.42Z"/><path class="f" d="M185.07,131.47c.43-.05,.59-.28,.59-.62v-2.33c0-.41,0-.65-.29-.65h-.41v-.26c.94-.19,1.53-.45,1.53-.45l.03,.03s-.09,.31-.11,1.16c.34-.5,.96-1.05,1.73-1.05,.61,0,1.01,.35,1.01,1.1,.36-.57,1-1.1,1.75-1.1,.62,0,1.02,.34,1.02,1.29v2.26c0,.29-.05,.52-.05,.52l.81,.09-.04,.24-2.06,.06v-.28c.43-.05,.55-.28,.55-.62v-2.05c0-.73-.2-.92-.56-.92-.43,0-1.41,.39-1.41,.95v2.02c0,.29-.05,.52-.05,.52l.77,.09-.04,.24-2.01,.06v-.28c.43-.05,.55-.28,.55-.62v-2.05c0-.73-.2-.92-.57-.92-.43,0-.97,.26-1.38,.67v2.3c0,.29-.05,.52-.05,.52l.77,.09-.04,.24-2.06,.06v-.28Z"/><path class="f" d="M193.44,131.47c.43-.05,.59-.28,.59-.62v-2.33c0-.41,0-.65-.29-.65h-.43v-.26c1.4-.33,1.6-.45,1.6-.45v.03s-.1,.32-.1,1.09v2.57c0,.29-.05,.52-.05,.52l.81,.09-.04,.24-2.11,.06v-.28Zm.38-5.67c0-.28,.24-.52,.52-.52s.52,.24,.52,.52-.24,.52-.52,.52-.52-.24-.52-.52Z"/><path class="f" d="M196.37,131.47c.43-.05,.59-.28,.59-.62v-2.33c0-.41,0-.65-.29-.65h-.43v-.26c.94-.19,1.53-.45,1.53-.45l.03,.03s-.09,.32-.1,1.17c.34-.52,1.01-1.06,1.82-1.06,.66,0,1.09,.36,1.09,1.29v2.26c0,.29-.05,.51-.05,.51l.81,.1-.04,.24-2.06,.06v-.28c.43-.05,.55-.28,.55-.62v-2.05c0-.73-.28-.92-.66-.92-.44,0-1.02,.26-1.43,.67v2.3c0,.29-.05,.51-.05,.51l.77,.1-.04,.24-2.06,.06v-.28Z"/><path class="f" d="M202.14,131.47c.43-.05,.59-.28,.59-.62v-2.33c0-.41,0-.65-.29-.65h-.43v-.26c1.4-.33,1.6-.45,1.6-.45v.03s-.1,.32-.1,1.09v2.57c0,.29-.05,.52-.05,.52l.81,.09-.04,.24-2.11,.06v-.28Zm.38-5.67c0-.28,.24-.52,.52-.52s.52,.24,.52,.52-.24,.52-.52,.52-.52-.24-.52-.52Z"/><path class="f" d="M205.2,130.46h.29c.06,.81,.62,1.05,1.08,1.05s.79-.25,.79-.65c0-1.02-2.19-.96-2.19-2.35,0-.71,.55-1.22,1.56-1.22,.57,0,1.2,.17,1.2,.17l-.19,.99h-.3c0-.78-.66-.83-.86-.83-.52,0-.72,.32-.72,.61,0,1.02,2.18,.83,2.18,2.35,0,.79-.62,1.25-1.53,1.25-.44,0-1.44-.11-1.44-.65,0-.19,.12-.73,.12-.73Z"/><path class="f" d="M209.52,128.52c0-.28,.03-.62,.03-.62h-.63v-.29s.42-.09,.65-.3l.35-1.04h.43l.03,.04s-.09,.28-.09,.96v.14h1.49l-.07,.46h-1.32l-.1,.1v2.43c0,.56,.16,.86,.67,.86,.43,0,.86-.2,.86-.2l.12,.18s-.55,.59-1.38,.59c-.68,0-1.06-.38-1.06-1.25v-2.06Z"/><path class="f" d="M212.66,131.47c.43-.05,.59-.28,.59-.62v-2.33c0-.41,0-.65-.29-.65h-.43v-.26c.94-.19,1.55-.45,1.55-.45l.03,.03s-.09,.32-.11,1.22c.29-.54,.79-1.11,1.29-1.11,.23,0,.52,.12,.52,.44,0,.29-.2,.47-.45,.47-.22,0-.25-.16-.47-.16-.33,0-.64,.32-.85,.56v2.25c0,.29-.05,.52-.05,.52l.91,.09-.04,.24-2.2,.06v-.28Z"/><path class="f" d="M218.57,129.32l.32-.05c0-.2,0-.76-.04-1.02-.07-.35-.25-.61-.6-.61-.65,0-1.02,.92-1.02,.92h-.31l-.16-.72s.7-.54,1.77-.54c.9,0,1.14,.36,1.14,1.37v2.2c0,.31,.04,.45,.26,.45,.26,0,.53-.19,.53-.19l.12,.2s-.45,.51-1.02,.51c-.36,0-.65-.21-.65-.68v-.23s-.51,.91-1.49,.91c-.63,0-.99-.45-.99-.97,0-.92,1.14-1.4,2.14-1.55Zm.32,1.4v-1.13l-.3,.05c-.55,.09-1.32,.37-1.32,1.06,0,.38,.25,.59,.54,.59,.37,0,.83-.36,1.08-.57Z"/><path class="f" d="M221.69,128.52c0-.28,.03-.62,.03-.62h-.63v-.29s.42-.09,.65-.3l.35-1.04h.43l.03,.04s-.09,.28-.09,.96v.14h1.49l-.07,.46h-1.32l-.1,.1v2.43c0,.56,.16,.86,.67,.86,.43,0,.86-.2,.86-.2l.12,.18s-.55,.59-1.38,.59c-.68,0-1.06-.38-1.06-1.25v-2.06Z"/><path class="f" d="M224.83,131.47c.43-.05,.59-.28,.59-.62v-2.33c0-.41,0-.65-.29-.65h-.43v-.26c1.4-.33,1.6-.45,1.6-.45v.03s-.1,.32-.1,1.09v2.57c0,.29-.05,.52-.05,.52l.81,.09-.04,.24-2.11,.06v-.28Zm.38-5.67c0-.28,.24-.52,.52-.52s.52,.24,.52,.52-.24,.52-.52,.52-.52-.24-.52-.52Z"/><path class="f" d="M229.99,127.3c1.4,0,2.12,.92,2.12,2.1s-.74,2.44-2.27,2.44c-1.35,0-2.1-.95-2.1-2.17,0-1.12,.62-2.37,2.25-2.37Zm-.02,4.21c.81,0,1.25-.82,1.25-1.85,0-.95-.38-2.04-1.35-2.04-.88,0-1.25,.9-1.25,1.82s.39,2.07,1.35,2.07Z"/><path class="f" d="M233.11,131.47c.43-.05,.59-.28,.59-.62v-2.33c0-.41,0-.65-.29-.65h-.43v-.26c.94-.19,1.53-.45,1.53-.45l.03,.03s-.09,.32-.1,1.17c.34-.52,1.02-1.06,1.82-1.06,.66,0,1.09,.36,1.09,1.29v2.26c0,.29-.05,.51-.05,.51l.81,.1-.04,.24-2.06,.06v-.28c.43-.05,.55-.28,.55-.62v-2.05c0-.73-.28-.92-.66-.92-.44,0-1.02,.26-1.43,.67v2.3c0,.29-.05,.51-.05,.51l.77,.1-.04,.24-2.06,.06v-.28Z"/></g></g></g></g></g></g></svg>